<?xml version="1.0" encoding="UTF-8" standalone="no"?>
<!-- Created with Inkscape (http://www.inkscape.org/) -->

<svg
   xmlns:ns0="http://www.iki.fi/pav/software/textext/"
   xmlns:dc="http://purl.org/dc/elements/1.1/"
   xmlns:cc="http://creativecommons.org/ns#"
   xmlns:rdf="http://www.w3.org/1999/02/22-rdf-syntax-ns#"
   xmlns:svg="http://www.w3.org/2000/svg"
   xmlns="http://www.w3.org/2000/svg"
   xmlns:sodipodi="http://sodipodi.sourceforge.net/DTD/sodipodi-0.dtd"
   xmlns:inkscape="http://www.inkscape.org/namespaces/inkscape"
   sodipodi:docname="08_second_error.pdf"
   xml:space="preserve"
   height="743.75"
   width="1051.25"
   inkscape:version="0.48.4 r9939"
   version="1.1"
   id="svg3004"><sodipodi:namedview
     pagecolor="#ffffff"
     bordercolor="#666666"
     borderopacity="1"
     objecttolerance="10"
     gridtolerance="10"
     guidetolerance="10"
     inkscape:pageopacity="0"
     inkscape:pageshadow="2"
     inkscape:window-width="1440"
     inkscape:window-height="841"
     id="namedview3006"
     showgrid="false"
     inkscape:zoom="0.89749082"
     inkscape:cx="707.86538"
     inkscape:cy="292.82025"
     inkscape:window-x="-4"
     inkscape:window-y="-3"
     inkscape:window-maximized="1"
     inkscape:current-layer="g3012" /><metadata
     id="metadata3010"><rdf:RDF><cc:Work
         rdf:about=""><dc:format>image/svg+xml</dc:format><dc:type
           rdf:resource="http://purl.org/dc/dcmitype/StillImage" /><dc:title></dc:title></cc:Work></rdf:RDF></metadata><defs
     id="defs3008"><clipPath
       id="clipPath3022"
       clipPathUnits="userSpaceOnUse"><path
         id="path3024"
         d="m 59.04,73.44 752.4,0 0,462.96 -752.4,0 0,-462.96 z" /></clipPath><clipPath
       id="clipPath3030"
       clipPathUnits="userSpaceOnUse"><path
         id="path3032"
         d="m 59.04,73.44 752.4,0 0,462.96 -752.4,0 0,-462.96 z" /></clipPath><clipPath
       id="clipPath3124"
       clipPathUnits="userSpaceOnUse"><path
         id="path3126"
         d="m 59.04,73.44 752.4,0 0,462.96 -752.4,0 0,-462.96 z" /></clipPath></defs><g
     transform="matrix(1.25,0,0,-1.25,0,743.75)"
     inkscape:label="08_second_error"
     inkscape:groupmode="layer"
     id="g3012"><g
       id="g3018"><g
         clip-path="url(#clipPath3022)"
         id="g3020" /></g><g
       id="g3026"><g
         clip-path="url(#clipPath3030)"
         id="g3028"><path
           id="path3034"
           style="fill:none;stroke:#ff0000;stroke-opacity:1;stroke-width:1.5;stroke-linecap:round;stroke-linejoin:round;stroke-miterlimit:10;stroke-dasharray:none"
           d="m 86.91,90.59 6.96,0 6.97,0.01 6.97,0.01 6.96,0.01 6.97,0.01 6.97,0.02 6.96,0.02 6.97,0.03 6.97,0.03 6.96,0.04 6.97,0.05 6.97,0.07 6.96,0.07 6.97,0.09 6.97,0.11 6.96,0.14 6.97,0.15 6.97,0.19 6.96,0.23 6.97,0.27 6.97,0.31 6.96,0.37 6.97,0.44 6.97,0.5 6.96,0.59 6.97,0.69 6.97,0.78 6.96,0.91 6.97,1.04 6.97,1.18 6.96,1.34 6.97,1.52 6.97,1.72 6.96,1.92 6.97,2.16 6.97,2.4 6.96,2.67 6.97,2.96 6.97,3.25 6.96,3.58 6.97,3.9 6.97,4.26 6.96,4.62 6.97,5 6.97,5.39 6.96,5.77 6.97,6.18 6.97,6.57 6.96,6.98 6.97,7.37 6.97,7.76 6.96,8.14 6.97,8.5 6.97,8.85 6.96,9.17 6.97,9.48 6.97,9.75 6.96,9.99 6.97,10.21 6.97,10.38 6.96,10.52 6.97,10.61 6.97,10.68 6.96,10.7 6.97,10.67 6.97,10.61 6.96,10.51 6.97,10.37 6.97,10.19 6.96,9.98 6.97,9.73 6.97,9.45 6.96,9.15 6.97,8.83 6.97,8.47 6.96,8.12 6.97,7.73 6.97,7.34 6.96,6.95 6.97,6.54 6.97,6.15 6.96,5.75 6.97,5.35 6.97,4.97 6.96,4.6 6.97,4.23 6.97,3.88 6.96,3.55 6.97,3.23 6.97,2.94 6.96,2.65 6.97,2.38 6.97,2.14 6.96,1.91 6.97,1.7 6.97,1.51 6.96,1.33 6.97,1.17 6.97,1.03 6.96,0.89" /></g></g><g
       id="g3036"><path
         id="path3038"
         style="fill:none;stroke:#000000;stroke-opacity:1;stroke-width:0.75;stroke-linecap:round;stroke-linejoin:round;stroke-miterlimit:10;stroke-dasharray:none"
         d="m 156.57,73.44 557.34,0" /><path
         id="path3040"
         style="fill:none;stroke:#000000;stroke-opacity:1;stroke-width:0.75;stroke-linecap:round;stroke-linejoin:round;stroke-miterlimit:10;stroke-dasharray:none"
         d="m 156.57,73.44 0,-7.2" /><path
         id="path3042"
         style="fill:none;stroke:#000000;stroke-opacity:1;stroke-width:0.75;stroke-linecap:round;stroke-linejoin:round;stroke-miterlimit:10;stroke-dasharray:none"
         d="m 295.91,73.44 0,-7.2" /><path
         id="path3044"
         style="fill:none;stroke:#000000;stroke-opacity:1;stroke-width:0.75;stroke-linecap:round;stroke-linejoin:round;stroke-miterlimit:10;stroke-dasharray:none"
         d="m 435.24,73.44 0,-7.2" /><path
         id="path3046"
         style="fill:none;stroke:#000000;stroke-opacity:1;stroke-width:0.75;stroke-linecap:round;stroke-linejoin:round;stroke-miterlimit:10;stroke-dasharray:none"
         d="m 574.57,73.44 0,-7.2" /><path
         id="path3048"
         style="fill:none;stroke:#000000;stroke-opacity:1;stroke-width:0.75;stroke-linecap:round;stroke-linejoin:round;stroke-miterlimit:10;stroke-dasharray:none"
         d="m 713.91,73.44 0,-7.2" /><text
         id="text3050"
         transform="matrix(1,0,0,-1,143.23,47.52)"><tspan
           id="tspan3052"
           sodipodi:role="line"
           y="0"
           x="0 8.896 17.792"
           style="fill:#000000;fill-opacity:1;fill-rule:nonzero;stroke:none;font-family:Helvetica;font-variant:normal;font-weight:normal;font-size:16;writing-mode:lr;-inkscape-font-specification:Helvetica">116</tspan></text>
<text
         id="text3054"
         transform="matrix(1,0,0,-1,282.56,47.52)"><tspan
           id="tspan3056"
           sodipodi:role="line"
           y="0"
           x="0 8.896 17.792"
           style="fill:#000000;fill-opacity:1;fill-rule:nonzero;stroke:none;font-family:Helvetica;font-variant:normal;font-weight:normal;font-size:16;writing-mode:lr;-inkscape-font-specification:Helvetica">118</tspan></text>
<text
         id="text3058"
         transform="matrix(1,0,0,-1,421.9,47.52)"><tspan
           id="tspan3060"
           sodipodi:role="line"
           y="0"
           x="0 8.896 17.792"
           style="fill:#000000;fill-opacity:1;fill-rule:nonzero;stroke:none;font-family:Helvetica;font-variant:normal;font-weight:normal;font-size:16;writing-mode:lr;-inkscape-font-specification:Helvetica">120</tspan></text>
<text
         id="text3062"
         transform="matrix(1,0,0,-1,561.23,47.52)"><tspan
           id="tspan3064"
           sodipodi:role="line"
           y="0"
           x="0 8.896 17.792"
           style="fill:#000000;fill-opacity:1;fill-rule:nonzero;stroke:none;font-family:Helvetica;font-variant:normal;font-weight:normal;font-size:16;writing-mode:lr;-inkscape-font-specification:Helvetica">122</tspan></text>
<text
         id="text3066"
         transform="matrix(1,0,0,-1,700.56,47.52)"><tspan
           id="tspan3068"
           sodipodi:role="line"
           y="0"
           x="0 8.896 17.792"
           style="fill:#000000;fill-opacity:1;fill-rule:nonzero;stroke:none;font-family:Helvetica;font-variant:normal;font-weight:normal;font-size:16;writing-mode:lr;-inkscape-font-specification:Helvetica">124</tspan></text>
<path
         id="path3070"
         style="fill:none;stroke:#000000;stroke-opacity:1;stroke-width:0.75;stroke-linecap:round;stroke-linejoin:round;stroke-miterlimit:10;stroke-dasharray:none"
         d="m 59.04,90.57 0,433.88" /><path
         id="path3072"
         style="fill:none;stroke:#000000;stroke-opacity:1;stroke-width:0.75;stroke-linecap:round;stroke-linejoin:round;stroke-miterlimit:10;stroke-dasharray:none"
         d="m 59.04,90.57 -7.2,0" /><path
         id="path3074"
         style="fill:none;stroke:#000000;stroke-opacity:1;stroke-width:0.75;stroke-linecap:round;stroke-linejoin:round;stroke-miterlimit:10;stroke-dasharray:none"
         d="m 59.04,177.34 -7.2,0" /><path
         id="path3076"
         style="fill:none;stroke:#000000;stroke-opacity:1;stroke-width:0.75;stroke-linecap:round;stroke-linejoin:round;stroke-miterlimit:10;stroke-dasharray:none"
         d="m 59.04,264.12 -7.2,0" /><path
         id="path3078"
         style="fill:none;stroke:#000000;stroke-opacity:1;stroke-width:0.75;stroke-linecap:round;stroke-linejoin:round;stroke-miterlimit:10;stroke-dasharray:none"
         d="m 59.04,350.9 -7.2,0" /><path
         id="path3080"
         style="fill:none;stroke:#000000;stroke-opacity:1;stroke-width:0.75;stroke-linecap:round;stroke-linejoin:round;stroke-miterlimit:10;stroke-dasharray:none"
         d="m 59.04,437.67 -7.2,0" /><path
         id="path3082"
         style="fill:none;stroke:#000000;stroke-opacity:1;stroke-width:0.75;stroke-linecap:round;stroke-linejoin:round;stroke-miterlimit:10;stroke-dasharray:none"
         d="m 59.04,524.45 -7.2,0" /><text
         id="text3084"
         transform="matrix(0,1,1,0,41.76,79.45)"><tspan
           id="tspan3086"
           sodipodi:role="line"
           y="0"
           x="0 8.896 13.344"
           style="fill:#000000;fill-opacity:1;fill-rule:nonzero;stroke:none;font-family:Helvetica;font-variant:normal;font-weight:normal;font-size:16;writing-mode:lr;-inkscape-font-specification:Helvetica">0.0</tspan></text>
<text
         id="text3088"
         transform="matrix(0,1,1,0,41.76,166.22)"><tspan
           id="tspan3090"
           sodipodi:role="line"
           y="0"
           x="0 8.896 13.344"
           style="fill:#000000;fill-opacity:1;fill-rule:nonzero;stroke:none;font-family:Helvetica;font-variant:normal;font-weight:normal;font-size:16;writing-mode:lr;-inkscape-font-specification:Helvetica">0.2</tspan></text>
<text
         id="text3092"
         transform="matrix(0,1,1,0,41.76,253)"><tspan
           id="tspan3094"
           sodipodi:role="line"
           y="0"
           x="0 8.896 13.344"
           style="fill:#000000;fill-opacity:1;fill-rule:nonzero;stroke:none;font-family:Helvetica;font-variant:normal;font-weight:normal;font-size:16;writing-mode:lr;-inkscape-font-specification:Helvetica">0.4</tspan></text>
<text
         id="text3096"
         transform="matrix(0,1,1,0,41.76,339.78)"><tspan
           id="tspan3098"
           sodipodi:role="line"
           y="0"
           x="0 8.896 13.344"
           style="fill:#000000;fill-opacity:1;fill-rule:nonzero;stroke:none;font-family:Helvetica;font-variant:normal;font-weight:normal;font-size:16;writing-mode:lr;-inkscape-font-specification:Helvetica">0.6</tspan></text>
<text
         id="text3100"
         transform="matrix(0,1,1,0,41.76,426.55)"><tspan
           id="tspan3102"
           sodipodi:role="line"
           y="0"
           x="0 8.896 13.344"
           style="fill:#000000;fill-opacity:1;fill-rule:nonzero;stroke:none;font-family:Helvetica;font-variant:normal;font-weight:normal;font-size:16;writing-mode:lr;-inkscape-font-specification:Helvetica">0.8</tspan></text>
<text
         id="text3104"
         transform="matrix(0,1,1,0,41.76,513.33)"><tspan
           id="tspan3106"
           sodipodi:role="line"
           y="0"
           x="0 8.896 13.344"
           style="fill:#000000;fill-opacity:1;fill-rule:nonzero;stroke:none;font-family:Helvetica;font-variant:normal;font-weight:normal;font-size:16;writing-mode:lr;-inkscape-font-specification:Helvetica">1.0</tspan></text>
<path
         id="path3108"
         style="fill:none;stroke:#000000;stroke-opacity:1;stroke-width:0.75;stroke-linecap:round;stroke-linejoin:round;stroke-miterlimit:10;stroke-dasharray:none"
         d="m 59.04,73.44 752.4,0 0,462.96 -752.4,0 0,-462.96" /></g><g
       id="g3120"><g
         clip-path="url(#clipPath3124)"
         id="g3122"><path
           id="path3128"
           style="fill:none;stroke:#00ff00;stroke-opacity:1;stroke-width:1.5;stroke-linecap:round;stroke-linejoin:round;stroke-miterlimit:10;stroke-dasharray:none"
           d="m 86.91,502.75 6.96,0 6.97,0 6.97,0 6.96,0 6.97,0 6.97,0 6.96,0 6.97,0 6.97,0 6.96,0 6.97,0 6.97,0 6.96,0 6.97,0 6.97,0 6.96,0 6.97,0 6.97,0 6.96,0 6.97,0 6.97,0 6.96,0 6.97,0 6.97,0 6.96,0 6.97,0 6.97,0 6.96,0 6.97,0 6.97,0 6.96,0 6.97,0 6.97,0 6.96,0 6.97,0 6.97,0 6.96,0 6.97,0 6.97,0 6.96,0 6.97,0 6.97,0 6.96,0 6.97,0 6.97,0 6.96,0 6.97,0 6.97,0 6.96,0 6.97,0 6.97,0 6.96,0 6.97,0 6.97,0 6.96,0 6.97,0 6.97,0 6.96,0 6.97,0 6.97,0 6.96,0 6.97,0 6.97,0 6.96,0 6.97,0 6.97,0 6.96,0 6.97,0 6.97,0 6.96,0 6.97,0 6.97,0 6.96,0 6.97,0 6.97,0 6.96,0 6.97,0 6.97,0 6.96,0 6.97,0 6.97,0 6.96,0 6.97,0 6.97,0 6.96,0 6.97,0 6.97,0 6.96,0 6.97,0 6.97,0 6.96,0 6.97,0 6.97,0 6.96,0 6.97,0 6.97,0 6.96,0 6.97,0 6.97,0 6.96,0" /></g></g><path
       sodipodi:nodetypes="cc"
       transform="matrix(0.8,0,0,-0.8,0,595)"
       inkscape:connector-curvature="0"
       id="path3130"
       d="M 892.35886,658.03444 892.48823,73.3174"
       style="fill:none;stroke:#000000;stroke-width:1px;stroke-linecap:butt;stroke-linejoin:miter;stroke-opacity:1" /><rect
       transform="scale(1,-1)"
       y="-422.51129"
       x="159.55594"
       height="147.96808"
       width="125.68373"
       id="rect3132"
       style="fill:#e6e6e6;fill-opacity:0.43362834;fill-rule:evenodd;stroke:none" /><g
       inkscape:transform-center-y="73.538356"
       inkscape:transform-center-x="-26.74122"
       style="font-style:normal;font-variant:normal;font-weight:normal;font-stretch:normal;letter-spacing:normal;word-spacing:normal;text-anchor:start;fill:#ff0000;stroke:#000000;stroke-linecap:butt;stroke-linejoin:miter;stroke-miterlimit:10.43299961;stroke-opacity:1;stroke-dasharray:none;stroke-dashoffset:0"
       ns0:preamble=""
       ns0:text="$\\beta(\\mu)$"
       word-spacing="normal"
       letter-spacing="normal"
       font-size-adjust="none"
       font-stretch="normal"
       font-weight="normal"
       font-variant="normal"
       font-style="normal"
       stroke-miterlimit="10.433"
       xml:space="preserve"
       transform="matrix(3,0,0,3,-478.77318,-1658.8898)"
       id="content"><path
         style="fill:#ff0000;stroke-width:0"
         inkscape:connector-curvature="0"
         id="path3195"
         d="m 229.15,662.89 0,0.07 0,0.07 -0.01,0.06 -0.01,0.07 -0.02,0.06 -0.01,0.07 -0.02,0.06 -0.03,0.06 -0.02,0.06 -0.03,0.06 -0.03,0.06 -0.03,0.06 -0.04,0.05 -0.04,0.05 -0.04,0.05 -0.04,0.05 -0.05,0.04 -0.04,0.05 -0.06,0.04 -0.05,0.03 -0.05,0.04 -0.06,0.03 -0.06,0.03 -0.06,0.03 -0.06,0.02 -0.07,0.03 -0.06,0.01 -0.07,0.02 -0.07,0.01 -0.07,0.01 -0.08,0.01 -0.07,0 c -0.58,0 -0.86,-0.16 -1.2,-0.42 -0.55,-0.4 -1.1,-1.36 -1.29,-2.11 l -1.58,-6.31 c -0.01,-0.04 0.04,-0.1 0.12,-0.1 0.08,0 0.11,0.02 0.12,0.05 l 0.7,2.74 c 0.18,-0.6 0.62,-0.96 1.35,-0.96 l -0.03,0.21 c -0.76,0 -1.14,0.58 -1.14,1.29 0,0.09 0,0.24 0.05,0.43 l 0.64,2.52 c 0.22,0.85 0.94,2.43 2.13,2.43 0.58,0 0.93,-0.31 0.93,-0.9 h 0 c 0,-0.7 -0.38,-1.41 -0.9,-1.72 -0.27,0.1 -0.47,0.12 -0.77,0.12 -0.2,0 -0.76,0.01 -0.76,-0.32 -0.01,-0.28 0.51,-0.25 0.68,-0.25 l 0.03,0.22 c -0.14,0 -0.33,-0.01 -0.43,0.04 0.02,0.1 0.37,0.08 0.48,0.08 0.21,0 0.3,0 0.43,-0.05 h 0 c -0.13,-0.05 -0.24,-0.07 -0.48,-0.07 l -0.03,-0.22 c 0.37,0 0.52,0.01 0.82,0.13 0.38,-0.36 0.43,-0.67 0.44,-1.12 0.02,-0.58 -0.22,-1.32 -0.5,-1.71 -0.39,-0.54 -1.05,-0.9 -1.62,-0.9 l 0.03,-0.21 c 0.72,0 1.47,0.34 1.92,0.78 0.48,0.46 0.8,1.09 0.8,1.83 0,0.71 -0.37,1.23 -0.73,1.48 0.58,0.33 1.14,0.94 1.14,1.66 z" /><path
         style="fill:#ff0000;stroke-width:0"
         inkscape:connector-curvature="0"
         id="path3197"
         d="m 232.89,654.85 0,0.01 0,0 0,0 -0.01,0.01 0,0 0,0 0,0.01 0,0 0,0 0,0.01 -0.01,0 0,0.01 0,0 -0.01,0.01 0,0 0,0.01 -0.01,0.01 -0.01,0 0,0.01 0,0 -0.01,0.01 0,0 0,0 -0.01,0.01 0,0 -0.01,0.01 0,0 0,0.01 -0.01,0 0,0.01 -0.01,0 -0.01,0.01 0,0.01 -0.01,0 0,0.01 -0.01,0.01 -0.01,0 0,0.01 -0.01,0.01 -0.01,0 -0.01,0.01 0,0.01 c -1.25,1.25 -1.57,3.13 -1.57,4.65 0,1.73 0.38,3.45 1.61,4.7 0.13,0.12 0.13,0.14 0.13,0.17 0,0.07 -0.04,0.09 -0.1,0.09 -0.1,0 -1,-0.67 -1.58,-1.93 -0.51,-1.09 -0.63,-2.2 -0.63,-3.03 0,-0.78 0.11,-1.98 0.66,-3.1 0.59,-1.22 1.45,-1.87 1.55,-1.87 0.06,0 0.1,0.03 0.1,0.1 z" /><path
         style="fill:#ff0000;stroke-width:0"
         inkscape:connector-curvature="0"
         id="path3199"
         d="m 235.76,660.72 0.01,0.02 0,0.02 0.01,0.02 0.01,0.03 0,0.02 0.01,0.02 0.01,0.05 0.01,0.05 0.01,0.05 0.02,0.05 0.01,0.05 0,0.02 0.01,0.03 0,0.02 0.01,0.02 0,0.02 0.01,0.02 0,0.02 0.01,0.02 0,0.01 0,0.02 0.01,0.01 0,0.01 0,0.02 0,0 0,0.01 0,0.01 0,0 c 0,0.17 -0.12,0.27 -0.28,0.27 -0.03,0 -0.31,-0.01 -0.4,-0.36 l -1.44,-5.75 c -0.03,-0.12 -0.03,-0.14 -0.03,-0.16 0,-0.15 0.12,-0.27 0.28,-0.27 0.21,0 0.33,0.18 0.35,0.21 0.04,0.09 0.17,0.6 0.55,2.13 0.32,-0.27 0.77,-0.3 0.96,-0.3 0.7,0 1.09,0.44 1.33,0.72 0.09,-0.45 0.46,-0.72 0.89,-0.72 0.35,0 0.58,0.22 0.74,0.54 0.17,0.36 0.3,0.97 0.3,0.99 0,0.1 -0.09,0.1 -0.12,0.1 -0.1,0 -0.11,-0.04 -0.14,-0.18 -0.17,-0.65 -0.35,-1.24 -0.76,-1.24 -0.26,0 -0.29,0.26 -0.29,0.46 0,0.22 0.11,0.69 0.19,1.03 l 0.28,1.08 c 0.03,0.15 0.13,0.52 0.17,0.67 0.05,0.23 0.15,0.61 0.15,0.67 0,0.18 -0.14,0.27 -0.29,0.27 -0.05,0 -0.31,-0.01 -0.39,-0.35 l -0.46,-1.86 c -0.12,-0.5 -0.23,-0.91 -0.26,-1.01 -0.01,-0.05 -0.49,-0.96 -1.3,-0.96 -0.49,0 -0.73,0.33 -0.73,0.87 0,0.29 0.07,0.57 0.14,0.84 z" /><path
         style="fill:#ff0000;stroke-width:0"
         inkscape:connector-curvature="0"
         id="path3201"
         d="m 242.35,659.72 -0.01,0.07 0,0.08 0,0.08 0,0.08 -0.01,0.17 -0.01,0.17 -0.02,0.18 -0.02,0.19 -0.03,0.2 -0.03,0.2 -0.04,0.2 -0.04,0.21 -0.06,0.21 -0.06,0.21 -0.07,0.21 -0.08,0.21 -0.04,0.11 -0.04,0.11 -0.05,0.1 -0.05,0.11 c -0.6,1.22 -1.45,1.86 -1.55,1.86 -0.06,0 -0.1,-0.03 -0.1,-0.09 0,-0.03 0,-0.05 0.19,-0.23 0.97,-0.99 1.54,-2.57 1.54,-4.64 0,-1.7 -0.37,-3.45 -1.6,-4.7 -0.13,-0.12 -0.13,-0.14 -0.13,-0.17 0,-0.06 0.04,-0.1 0.1,-0.1 0.1,0 0.99,0.68 1.58,1.94 0.51,1.09 0.63,2.19 0.63,3.03 z" /></g><g
       style="font-style:normal;font-variant:normal;font-weight:normal;font-stretch:normal;letter-spacing:normal;word-spacing:normal;text-anchor:start;fill:none;stroke:#000000;stroke-linecap:butt;stroke-linejoin:miter;stroke-miterlimit:10.43299961;stroke-opacity:1;stroke-dasharray:none;stroke-dashoffset:0"
       ns0:preamble=""
       ns0:text="$\\mu_0$"
       word-spacing="normal"
       letter-spacing="normal"
       font-size-adjust="none"
       font-stretch="normal"
       font-weight="normal"
       font-variant="normal"
       font-style="normal"
       stroke-miterlimit="10.433"
       xml:space="preserve"
       transform="matrix(3,0,0,3,33.766926,-1948.8436)"
       id="g3465"><path
         id="path3467"
         d="m 225.73,660.72 0,0.02 0.01,0.02 0.01,0.02 0,0.03 0.01,0.02 0,0.02 0.01,0.05 0.02,0.05 0.01,0.05 0.01,0.05 0.01,0.05 0.01,0.02 0,0.03 0.01,0.02 0.01,0.02 0,0.02 0,0.02 0.01,0.02 0,0.02 0.01,0.01 0,0.02 0,0.01 0,0.01 0.01,0.02 0,0 0,0.01 0,0.01 0,0 c 0,0.17 -0.12,0.27 -0.29,0.27 -0.03,0 -0.31,-0.01 -0.4,-0.36 l -1.43,-5.75 c -0.03,-0.12 -0.03,-0.14 -0.03,-0.16 0,-0.15 0.11,-0.27 0.28,-0.27 0.21,0 0.33,0.18 0.35,0.21 0.04,0.09 0.17,0.6 0.54,2.13 0.32,-0.27 0.77,-0.3 0.97,-0.3 0.7,0 1.08,0.44 1.32,0.72 0.09,-0.45 0.46,-0.72 0.9,-0.72 0.35,0 0.57,0.22 0.73,0.54 0.17,0.36 0.3,0.97 0.3,0.99 0,0.1 -0.09,0.1 -0.12,0.1 -0.1,0 -0.11,-0.04 -0.14,-0.18 -0.16,-0.65 -0.34,-1.24 -0.75,-1.24 -0.27,0 -0.3,0.26 -0.3,0.46 0,0.22 0.12,0.69 0.2,1.03 l 0.28,1.08 c 0.03,0.15 0.13,0.52 0.17,0.67 0.05,0.23 0.15,0.61 0.15,0.67 0,0.18 -0.14,0.27 -0.29,0.27 -0.05,0 -0.31,-0.01 -0.39,-0.35 l -0.47,-1.86 c -0.12,-0.5 -0.23,-0.91 -0.26,-1.01 -0.01,-0.05 -0.49,-0.96 -1.29,-0.96 -0.5,0 -0.74,0.33 -0.74,0.87 0,0.29 0.07,0.57 0.14,0.84 z"
         inkscape:connector-curvature="0"
         style="fill:#000000;stroke-width:0" /><path
         id="path3469"
         d="m 233.03,657.96 0,0.14 -0.01,0.14 0,0.13 -0.01,0.12 -0.01,0.13 -0.02,0.12 -0.01,0.11 -0.03,0.11 -0.02,0.11 -0.03,0.11 -0.03,0.1 -0.04,0.1 -0.05,0.1 -0.04,0.09 -0.05,0.1 -0.03,0.04 -0.03,0.05 c -0.22,0.32 -0.65,0.6 -1.21,0.6 v -0.2 c 0.38,0 0.74,-0.23 0.87,-0.63 0.11,-0.37 0.12,-0.87 0.12,-1.48 0,-0.52 0,-1.03 -0.1,-1.47 -0.14,-0.63 -0.61,-0.78 -0.89,-0.78 h 0 c -0.32,0 -0.74,0.18 -0.88,0.75 -0.1,0.42 -0.1,0.98 -0.1,1.5 0,0.51 0,1.04 0.11,1.42 0.14,0.55 0.59,0.69 0.87,0.69 v 0.2 c -1.61,0 -1.61,-1.9 -1.61,-2.4 0,-0.5 0,-2.36 1.61,-2.36 1.62,0 1.62,1.86 1.62,2.36 z"
         inkscape:connector-curvature="0"
         style="fill:#000000;stroke-width:0" /></g><g
       style="font-style:normal;font-variant:normal;font-weight:normal;font-stretch:normal;letter-spacing:normal;word-spacing:normal;text-anchor:start;fill:none;stroke:#000000;stroke-linecap:butt;stroke-linejoin:miter;stroke-miterlimit:10.43299961;stroke-opacity:1;stroke-dasharray:none;stroke-dashoffset:0"
       id="g3605"
       transform="matrix(3,0,0,3,-308.5207,-1950.6263)"
       xml:space="preserve"
       stroke-miterlimit="10.433"
       font-style="normal"
       font-variant="normal"
       font-weight="normal"
       font-stretch="normal"
       font-size-adjust="none"
       letter-spacing="normal"
       word-spacing="normal"
       ns0:text="$\\mu$"
       ns0:preamble=""><path
         style="fill:#000000;stroke-width:0"
         inkscape:connector-curvature="0"
         d="m 225.73,660.72 0,0.02 0.01,0.02 0.01,0.02 0,0.03 0.01,0.02 0,0.02 0.01,0.05 0.02,0.05 0.01,0.05 0.01,0.05 0.01,0.05 0.01,0.02 0,0.03 0.01,0.02 0.01,0.02 0,0.02 0,0.02 0.01,0.02 0,0.02 0.01,0.01 0,0.02 0,0.01 0,0.01 0.01,0.02 0,0 0,0.01 0,0.01 0,0 c 0,0.17 -0.12,0.27 -0.29,0.27 -0.03,0 -0.31,-0.01 -0.4,-0.36 l -1.43,-5.75 c -0.03,-0.12 -0.03,-0.14 -0.03,-0.16 0,-0.15 0.11,-0.27 0.28,-0.27 0.21,0 0.33,0.18 0.35,0.21 0.04,0.09 0.17,0.6 0.54,2.13 0.32,-0.27 0.77,-0.3 0.97,-0.3 0.7,0 1.08,0.44 1.32,0.72 0.09,-0.45 0.46,-0.72 0.9,-0.72 0.35,0 0.57,0.22 0.73,0.54 0.17,0.36 0.3,0.97 0.3,0.99 0,0.1 -0.09,0.1 -0.12,0.1 -0.1,0 -0.11,-0.04 -0.14,-0.18 -0.16,-0.65 -0.34,-1.24 -0.75,-1.24 -0.27,0 -0.3,0.26 -0.3,0.46 0,0.22 0.12,0.69 0.2,1.03 l 0.28,1.08 c 0.03,0.15 0.13,0.52 0.17,0.67 0.05,0.23 0.15,0.61 0.15,0.67 0,0.18 -0.14,0.27 -0.29,0.27 -0.05,0 -0.31,-0.01 -0.39,-0.35 l -0.47,-1.86 c -0.12,-0.5 -0.23,-0.91 -0.26,-1.01 -0.01,-0.05 -0.49,-0.96 -1.29,-0.96 -0.5,0 -0.74,0.33 -0.74,0.87 0,0.29 0.07,0.57 0.14,0.84 z"
         id="path3607" /></g></g><g
     ns0:preamble=""
     ns0:text="$1-\\alpha$"
     word-spacing="normal"
     letter-spacing="normal"
     font-size-adjust="none"
     font-stretch="normal"
     font-weight="normal"
     font-variant="normal"
     font-style="normal"
     stroke-miterlimit="10.433"
     xml:space="preserve"
     transform="matrix(3.6037848,0,0,-3.6037848,-573.87945,2645.2514)"
     id="g3886"
     style="font-style:normal;font-variant:normal;font-weight:normal;font-stretch:normal;letter-spacing:normal;word-spacing:normal;text-anchor:start;fill:#00ff00;stroke:#000000;stroke-linecap:butt;stroke-linejoin:miter;stroke-miterlimit:10.43299961;stroke-opacity:1;stroke-dasharray:none;stroke-dashoffset:0"><path
       id="path3888"
       d="m 226.36,663.59 0,0.01 0,0.01 0,0.02 0,0.01 0,0 0,0.01 0,0.01 0,0.01 0,0.01 0,0.01 0,0.01 0,0.01 0,0 -0.01,0.01 0,0.01 0,0 0,0.01 0,0.01 0,0.01 0,0.01 -0.01,0.01 0,0.01 0,0.01 -0.01,0 0,0.01 -0.01,0.01 0,0 -0.01,0.01 -0.01,0 -0.01,0.01 0,0 -0.01,0 0,0 -0.01,0 0,0 -0.01,0 -0.01,0.01 0,0 -0.01,0 -0.01,0 0,0 -0.01,0 -0.01,0 -0.01,0 0,0 -0.01,0 -0.01,0 -0.01,0 -0.01,0 -0.01,0 -0.01,0 -0.01,0 c -0.62,-0.63 -1.49,-0.63 -1.81,-0.63 v -0.31 c 0.2,0 0.78,0 1.3,0.25 v -5.14 c 0,-0.36 -0.03,-0.48 -0.92,-0.48 h -0.32 v -0.31 c 0.35,0.04 1.21,0.04 1.61,0.04 0.4,0 1.26,0 1.61,-0.04 v 0.31 h -0.32 c -0.89,0 -0.92,0.11 -0.92,0.48 z"
       inkscape:connector-curvature="0"
       style="fill:#00ff00;stroke-width:0" /><path
       id="path3890"
       d="m 237.18,659.52 0.04,0 0.03,0 0.03,0 0.01,0 0.02,0 0.01,0 0.02,0.01 0.01,0 0.02,0 0.01,0 0.02,0.01 0.01,0 0.01,0 0.01,0.01 0.02,0.01 0.01,0 0.01,0.01 0.01,0.01 0.01,0 0,0.01 0.01,0.01 0,0.01 0.01,0 0,0.01 0,0.01 0.01,0 0,0.01 0,0.01 0,0 0.01,0.01 0,0.01 0,0.01 0,0 0,0.01 0,0.01 0,0.01 0,0.01 c 0,0.2 -0.18,0.2 -0.35,0.2 h -5.38 c -0.17,0 -0.35,0 -0.35,-0.2 0,-0.2 0.18,-0.2 0.35,-0.2 z"
       inkscape:connector-curvature="0"
       style="fill:#00ff00;stroke-width:0" /><path
       id="path3892"
       d="m 245.34,659.58 0,0.07 -0.01,0.07 0,0.07 0,0.07 -0.02,0.13 -0.02,0.12 -0.02,0.12 -0.02,0.12 -0.04,0.1 -0.03,0.11 -0.04,0.09 -0.04,0.1 -0.05,0.08 -0.05,0.08 -0.05,0.08 -0.05,0.07 -0.06,0.07 -0.06,0.06 -0.06,0.05 -0.06,0.06 -0.07,0.05 -0.07,0.04 -0.06,0.04 -0.07,0.04 -0.07,0.03 -0.08,0.03 -0.07,0.02 -0.07,0.02 -0.07,0.02 -0.07,0.01 -0.07,0.01 -0.08,0.01 -0.07,0 -0.07,0.01 c -1.36,0 -2.67,-1.42 -2.67,-2.83 0,-0.92 0.6,-1.67 1.61,-1.67 l 0.02,0.21 c -0.6,0 -0.9,0.45 -0.9,1.09 0,0.48 0.26,1.56 0.58,2.06 0.47,0.73 1.01,0.92 1.35,0.92 0.99,0 0.99,-1.3 0.99,-2.08 0,-0.37 0,-0.94 0.02,-1.11 h 0 c -0.88,-0.77 -1.64,-0.88 -2.04,-0.88 l -0.02,-0.21 c 0.63,0 1.34,0.22 2.1,0.83 0.13,-0.53 0.46,-0.83 0.9,-0.83 0.53,0 0.84,0.54 0.84,0.7 0,0.07 -0.06,0.1 -0.12,0.1 -0.07,0 -0.1,-0.03 -0.13,-0.1 -0.18,-0.49 -0.54,-0.49 -0.56,-0.49 -0.3,0 -0.3,0.78 -0.3,1.02 0,0.21 0,0.23 0.09,0.35 0.94,1.17 1.15,2.32 1.15,2.33 0,0.02 -0.01,0.1 -0.12,0.1 -0.1,0 -0.1,-0.03 -0.15,-0.21 -0.18,-0.63 -0.51,-1.38 -0.97,-1.97 z"
       inkscape:connector-curvature="0"
       style="fill:#00ff00;stroke-width:0" /></g></svg>